<svg width="48" height="49" viewBox="0 0 48 49" fill="none" xmlns="http://www.w3.org/2000/svg">
<g clip-path="url(#clip0_420_45177)">
<path d="M29 18.5C29 21.2618 26.7618 23.5 24 23.5C21.2382 23.5 19 21.2618 19 18.5C19 15.7382 21.2382 13.5 24 13.5C26.7618 13.5 29 15.7382 29 18.5ZM14.5 35.1078C14.5 31.0429 17.7929 27.75 21.8578 27.75H26.1422C30.2071 27.75 33.5 31.0429 33.5 35.1078C33.5 35.3243 33.3243 35.5 33.1078 35.5H14.8922C14.6757 35.5 14.5 35.3243 14.5 35.1078Z" stroke="#FDFFFC" stroke-width="2"/>
</g>
<defs>
<clipPath id="clip0_420_45177">
<rect width="21" height="24" fill="white" transform="translate(13.5 12.5)"/>
</clipPath>
</defs>
</svg>
