<svg width="73" height="25" viewBox="0 0 73 25" fill="none" xmlns="http://www.w3.org/2000/svg">
<path d="M8.40366 18.4006H11.7784C11.7086 18.8615 11.5757 19.2526 11.3807 19.5739C11.1846 19.8952 10.9364 20.1578 10.6361 20.3594C10.3359 20.5622 9.99686 20.7084 9.61906 20.7993C9.24236 20.8901 8.85015 20.9355 8.44576 20.9355C7.76106 20.9355 7.15945 20.8203 6.64315 20.5899C6.12575 20.3594 5.69255 20.0348 5.34355 19.6149C4.99455 19.1961 4.73197 18.6997 4.55803 18.1269C4.38298 17.5541 4.29656 16.9326 4.29656 16.2612C4.29656 15.5211 4.39738 14.8497 4.60013 14.2492C4.80288 13.6487 5.08208 13.1346 5.43883 12.7092C5.79559 12.2826 6.22436 11.9547 6.72846 11.7242C7.23147 11.4938 7.78986 11.3785 8.40476 11.3785C9.14486 11.3785 9.80519 11.5669 10.3857 11.9447C10.9652 12.3225 11.4372 12.944 11.8006 13.8104L15.6994 12.1962C14.9726 10.7016 13.9876 9.59698 12.7434 8.88458C11.4992 8.17218 10.0534 7.81543 8.40476 7.81543C7.13286 7.81543 5.98061 8.01818 4.9458 8.42368C3.911 8.82919 3.02798 9.39534 2.29452 10.121C1.56107 10.8478 0.994922 11.7242 0.597175 12.7513C0.199428 13.7783 0 14.9073 0 16.136C0 17.3647 0.202751 18.5147 0.608254 19.5418C1.01376 20.5688 1.5788 21.4496 2.3056 22.1831C3.03241 22.9165 3.90213 23.486 4.91478 23.8915C5.92743 24.297 7.04866 24.4998 8.27846 24.4998C9.17256 24.4998 10.0246 24.3879 10.8356 24.1641C11.6455 23.9403 12.39 23.6156 13.068 23.1891C13.7461 22.7625 14.3366 22.2318 14.8396 21.5959C15.3426 20.9599 15.7415 20.2298 16.034 19.4055C16.2434 18.8183 16.383 18.1823 16.4528 17.4976C16.5226 16.8129 16.558 16.0518 16.558 15.2131H8.40366V18.3995V18.4006Z" fill="#FDFFFC"/>
<path d="M27.2037 16.8501C27.2037 17.311 27.186 17.783 27.1516 18.2649C27.1162 18.7469 27.0087 19.1845 26.827 19.5756C26.6453 19.9667 26.3694 20.2847 25.9994 20.5295C25.6293 20.7744 25.1008 20.8962 24.4172 20.8962C23.7337 20.8962 23.2018 20.7744 22.824 20.5295C22.4462 20.2847 22.1704 19.9667 21.9964 19.5756C21.8214 19.1845 21.7172 18.748 21.6818 18.2649C21.6463 17.783 21.6297 17.311 21.6297 16.8501V8.25586H17.5215V17.4162C17.5215 19.8758 18.0876 21.6718 19.2188 22.803C20.3511 23.9353 22.0828 24.5003 24.4172 24.5003C26.7517 24.5003 28.48 23.9342 29.6057 22.803C30.7302 21.6707 31.2931 19.8758 31.2931 17.4162V8.25586H27.2059V16.8501H27.2037Z" fill="#FDFFFC"/>
<path d="M72.0785 16.7356L65.5694 8.50259L72.0785 0.5H66.8103L61.6074 7.52761V9.985L66.8103 16.7356H72.0785Z" fill="#FDFFFC"/>
<path d="M60.5967 9.99497V0.5H56.3301V16.7445H60.5967V9.99497Z" fill="#FDFFFC"/>
<path d="M45.6585 2.40786L40.8036 6.34877C39.2835 7.583 37.3856 8.25663 35.4268 8.25663H32.2227V24.5H35.4268C37.3845 24.5 39.2835 23.8264 40.8036 22.5921L45.6585 18.6512C47.1786 17.417 49.0765 16.7434 51.0353 16.7434H55.3474V0.5H51.0353C49.0765 0.5 47.1786 1.17362 45.6585 2.40786Z" fill="#FDFFFC"/>
<path d="M50.8423 19.6133H50.1875V22.7399H50.8423V19.6133Z" fill="#FDFFFC"/>
<path d="M53.5414 21.715H53.5015L52.6373 19.6133H51.8662V22.7399H52.4722V20.6492H52.5077L53.3043 22.5604H53.7408L54.5352 20.6492H54.5707V22.7399H55.1767V19.6133H54.4078L53.5414 21.715Z" fill="#FDFFFC"/>
<path d="M57.5062 19.6133H56.2021V22.7399H56.8569V21.7693H57.4741C57.8053 21.7693 58.0734 21.6707 58.2806 21.4724C58.4878 21.2741 58.5909 21.0148 58.5909 20.6946C58.5909 20.3744 58.49 20.1096 58.2895 19.9102C58.0901 19.7119 57.8297 19.6133 57.5073 19.6133H57.5062ZM57.7688 21.1001C57.6657 21.1921 57.5206 21.2386 57.3311 21.2386H56.8569V20.1506H57.3333C57.5228 20.1506 57.669 20.1972 57.771 20.2891C57.874 20.3844 57.925 20.5207 57.925 20.6968C57.925 20.873 57.8729 21.006 57.7688 21.1001Z" fill="#FDFFFC"/>
<path d="M60.8261 19.5332C60.3652 19.5332 59.9996 19.6795 59.7293 19.9731C59.4567 20.2689 59.3193 20.6699 59.3193 21.1752C59.3193 21.6804 59.4545 22.0837 59.7248 22.3773C59.9952 22.672 60.3619 22.8193 60.8261 22.8193C61.2903 22.8193 61.6549 22.672 61.9252 22.3773C62.1944 22.0826 62.3285 21.6815 62.3285 21.1752C62.3285 20.6688 62.1933 20.27 61.923 19.9753C61.6537 19.6806 61.2892 19.5332 60.8261 19.5332ZM61.4355 21.9562C61.2837 22.1501 61.081 22.2465 60.8261 22.2465C60.5713 22.2465 60.3663 22.1501 60.2145 21.9562C60.0639 21.7624 59.9896 21.5031 59.9896 21.1763C59.9896 20.8494 60.065 20.5902 60.2168 20.3963C60.3686 20.2046 60.5713 20.1082 60.8261 20.1082C61.081 20.1082 61.2837 20.2046 61.4355 20.3963C61.5862 20.5902 61.6615 20.8494 61.6615 21.1763C61.6615 21.5031 61.5862 21.7624 61.4355 21.9562Z" fill="#FDFFFC"/>
<path d="M65.4864 21.1555C65.5861 20.9982 65.6359 20.8187 65.6359 20.616C65.6359 20.3057 65.5373 20.0609 65.339 19.8814C65.1407 19.7019 64.8704 19.6133 64.5258 19.6133H63.2129V22.7399H63.8677V21.6064H64.4028L64.9856 22.7399H65.7268L65.0676 21.5045C65.2448 21.4336 65.3844 21.3173 65.4853 21.1555H65.4864ZM64.8271 20.9783C64.7352 21.0625 64.6067 21.1034 64.4416 21.1034H63.8677V20.1418H64.4349C64.5967 20.1418 64.7252 20.185 64.8205 20.2714C64.9158 20.3578 64.9634 20.4753 64.9634 20.6248C64.9634 20.7744 64.918 20.8929 64.8271 20.9783Z" fill="#FDFFFC"/>
<path d="M66.3818 20.1728H67.3191V22.7399H67.9739V20.1728H68.9124V19.6133H66.3818V20.1728Z" fill="#FDFFFC"/>
<path d="M71.9208 21.2272C71.7779 21.0854 71.5497 20.9813 71.2361 20.9148L70.8594 20.835C70.6755 20.7962 70.5448 20.7475 70.465 20.6877C70.3841 20.6289 70.3431 20.5503 70.3431 20.4539C70.3431 20.3353 70.393 20.2412 70.4927 20.1703C70.5913 20.0994 70.7221 20.0639 70.8871 20.0639C71.0522 20.0639 71.1763 20.1016 71.2838 20.1769C71.3879 20.2523 71.4478 20.352 71.4633 20.4761H72.0782C72.0682 20.1969 71.953 19.9708 71.7314 19.7958C71.5087 19.6207 71.2262 19.5332 70.8816 19.5332C70.5204 19.5332 70.2301 19.6218 70.013 19.8002C69.7947 19.9797 69.6861 20.2157 69.6861 20.5115C69.6861 20.9879 69.9698 21.2859 70.5359 21.4045L70.9436 21.4909C71.1353 21.5319 71.2738 21.5829 71.358 21.6449C71.4422 21.707 71.4832 21.7878 71.4832 21.8876C71.4832 22.0061 71.4289 22.1025 71.3203 22.1756C71.2118 22.251 71.0722 22.2886 70.9026 22.2886C70.7176 22.2886 70.567 22.251 70.4495 22.1756C70.3299 22.1003 70.2623 21.9995 70.2479 21.872H69.6152C69.6263 22.1634 69.7449 22.395 69.9709 22.5656C70.1969 22.7362 70.4949 22.8215 70.8683 22.8215C71.2605 22.8215 71.5707 22.7318 71.7956 22.5512C72.0228 22.3695 72.1358 22.1202 72.1358 21.8056C72.1358 21.5629 72.0638 21.3713 71.9208 21.2294V21.2272Z" fill="#FDFFFC"/>
</svg>
