<svg width="34" height="33" viewBox="0 0 34 33" fill="none" xmlns="http://www.w3.org/2000/svg">
<path d="M20.0499 3.69462L20.05 3.69454C22.1719 2.11542 24.8284 1.25 27.5737 1.25H31.8476C32.676 1.25 33.3476 1.92157 33.3476 2.75V20.4089C33.3476 21.2373 32.676 21.9089 31.8476 21.9089H27.5737C24.6218 21.9089 21.7543 22.8398 19.4531 24.5511L19.4531 24.5511L12.3892 29.8054L12.389 29.8055C10.2672 31.3846 7.61062 32.25 4.86539 32.25H2.20312C1.3747 32.25 0.703125 31.5784 0.703125 30.75V13.0911C0.703125 12.2627 1.3747 11.5911 2.20312 11.5911H4.86539C7.81726 11.5911 10.6848 10.6602 12.9859 8.9489L12.986 8.94888L20.0499 3.69462Z" stroke="#1A1918"/>
</svg>
