<svg width="16" height="17" viewBox="0 0 16 17" fill="none" xmlns="http://www.w3.org/2000/svg">
<g clip-path="url(#clip0_718_32207)">
<path d="M13 7C13 8.43437 12.5344 9.75938 11.75 10.8344L15.7062 14.7937C16.0969 15.1844 16.0969 15.8188 15.7062 16.2094C15.3156 16.6 14.6812 16.6 14.2906 16.2094L10.3344 12.25C9.25937 13.0375 7.93437 13.5 6.5 13.5C2.90937 13.5 0 10.5906 0 7C0 3.40937 2.90937 0.5 6.5 0.5C10.0906 0.5 13 3.40937 13 7ZM6.5 11.5C8.98437 11.5 11 9.48438 11 7C11 4.51562 8.98437 2.5 6.5 2.5C4.01562 2.5 2 4.51562 2 7C2 9.48438 4.01562 11.5 6.5 11.5Z" fill="#FDFFFC"/>
</g>
<defs>
<clipPath id="clip0_718_32207">
<rect width="16" height="16" fill="white" transform="translate(0 0.5)"/>
</clipPath>
</defs>
</svg>
