<svg width="32" height="33" viewBox="0 0 32 33" fill="none" xmlns="http://www.w3.org/2000/svg">
<path d="M29.4123 17.9279C30.1936 17.1467 30.1936 15.8779 29.4123 15.0967L19.4123 5.09668C18.6311 4.31543 17.3623 4.31543 16.5811 5.09668C15.7998 5.87793 15.7998 7.14668 16.5811 7.92793L25.1686 16.5154L16.5873 25.1029C15.8061 25.8842 15.8061 27.1529 16.5873 27.9342C17.3686 28.7154 18.6373 28.7154 19.4186 27.9342L29.4186 17.9342L29.4123 17.9279ZM7.4123 27.9279L17.4123 17.9279C18.1936 17.1467 18.1936 15.8779 17.4123 15.0967L7.4123 5.09668C6.63105 4.31543 5.3623 4.31543 4.58105 5.09668C3.7998 5.87793 3.7998 7.14668 4.58105 7.92793L13.1686 16.5154L4.5873 25.1029C3.80605 25.8842 3.80605 27.1529 4.5873 27.9342C5.36855 28.7154 6.6373 28.7154 7.41855 27.9342L7.4123 27.9279Z" fill="#282624"/>
</svg>
